<svg xmlns="http://www.w3.org/2000/svg" viewBox="0 0 110 110"><defs><style>      .cls-1 {        fill: #ffa100;      }      .cls-2 {        fill: #8ac4db;      }      .cls-3 {        fill: #edf5f7;      }      .cls-4 {        fill: #0092db;      }      .cls-5 {        fill: #3db8e8;      }      .cls-6 {        fill: #fff;      }      .cls-7 {        fill: #00c99f;      }      .cls-8 {        fill: #ff4d69;      }      .cls-9 {        fill: #0b83b2;      }      .cls-10 {        fill: #c0e4f2;      }    </style></defs><g><g id="Layer_1"><g id="_21._Buy"><circle class="cls-3" cx="55" cy="59" r="50"></circle><circle class="cls-8" cx="23" cy="4" r="3"></circle><circle class="cls-7" cx="106" cy="14.1" r="3"></circle><circle class="cls-1" cx="94" cy="106" r="3"></circle><circle class="cls-7" cx="6" cy="97" r="3"></circle><path class="cls-10" d="M14,31v56h82V31c0-2.2-1.8-4-4-4H18c-2.2,0-4,1.8-4,4Z"></path><path class="cls-6" d="M91,31H19c-.6,0-1,.4-1,1v50c0,.6.4,1,1,1h72c.6,0,1-.4,1-1v-50c0-.6-.4-1-1-1Z"></path><path class="cls-4" d="M96,87v.6c-1.9,2.7-4,5.1-6.3,7.4H20.3c-2.3-2.2-4.5-4.7-6.3-7.4v-.6h82Z"></path><circle class="cls-6" cx="55" cy="91" r="2"></circle><path class="cls-9" d="M65,105h-20c1.9-2.6,3-5.8,3-9v-1h14v1c0,3.2,1.1,6.4,3,9Z"></path><path class="cls-4" d="M70.9,106.4c-10.3,3.5-21.5,3.5-31.8,0,.3-.8,1-1.4,1.9-1.4h28c.5,0,1,.2,1.4.6.2.2.4.5.5.8Z"></path><rect class="cls-4" x="30" y="23" width="50" height="8" rx="2" ry="2"></rect><path class="cls-9" d="M77,31l-4.3,20.8c-.4,1.9-2,3.2-3.9,3.2h-27.5c-1.9,0-3.5-1.3-3.9-3.2l-4.3-20.8h44Z"></path><path class="cls-5" d="M45,35h0c1.1,0,2,.9,2,2v12c0,1.1-.9,2-2,2h0c-1.1,0-2-.9-2-2v-12c0-1.1.9-2,2-2Z"></path><path class="cls-5" d="M55,35h0c1.1,0,2,.9,2,2v12c0,1.1-.9,2-2,2h0c-1.1,0-2-.9-2-2v-12c0-1.1.9-2,2-2Z"></path><path class="cls-5" d="M65,35h0c1.1,0,2,.9,2,2v12c0,1.1-.9,2-2,2h0c-1.1,0-2-.9-2-2v-12c0-1.1.9-2,2-2Z"></path><path class="cls-9" d="M55,5c2.2,0,4,1.8,4,4v14h-8v-14c0-2.2,1.8-4,4-4Z"></path><rect class="cls-9" x="33" y="61" width="44" height="16" rx="3" ry="3"></rect><path class="cls-6" d="M45,64h-4c-.6,0-1,.4-1,1v8c0,.6.4,1,1,1h4c1.7,0,3-1.3,3-3,0-.7-.3-1.5-.8-2,.5-.5.8-1.3.8-2,0-1.7-1.3-3-3-3ZM42,66h3c.6,0,1,.4,1,1s-.4,1-1,1h-3v-2ZM45,72h-3v-2h3c.6,0,1,.4,1,1s-.4,1-1,1Z"></path><path class="cls-6" d="M58,64c-.6,0-1,.4-1,1v5c0,1.1-.9,2-2,2s-2-.9-2-2v-5c0-.6-.4-1-1-1s-1,.4-1,1v5c0,2.2,1.8,4,4,4s4-1.8,4-4v-5c0-.6-.4-1-1-1Z"></path><path class="cls-6" d="M69.6,64.2c-.4-.3-1.1-.2-1.4.2h0l-2.2,2.9-2.2-2.9c-.3-.4-1-.5-1.4-.2-.4.3-.5,1-.2,1.4,0,0,0,0,0,0l2.8,3.7v3.7c0,.6.4,1,1,1s1-.4,1-1v-3.7l2.8-3.7c.3-.4.2-1.1-.2-1.4h0Z"></path><g><path class="cls-1" d="M29,70h-3c-.6,0-1-.4-1-1s.4-1,1-1h3c.6,0,1,.4,1,1s-.4,1-1,1Z"></path><path class="cls-1" d="M30,65c-.3,0-.5-.1-.7-.3l-2-2c-.4-.4-.4-1,0-1.4.4-.4,1-.4,1.4,0h0l2,2c.4.4.4,1,0,1.4,0,0,0,0,0,0-.2.2-.4.3-.7.3Z"></path><path class="cls-1" d="M28,77c-.3,0-.5-.1-.7-.3-.4-.4-.4-1,0-1.4,0,0,0,0,0,0l2-2c.4-.4,1-.4,1.4,0,.4.4.4,1,0,1.4l-2,2c-.2.2-.4.3-.7.3Z"></path><path class="cls-1" d="M84,70h-3c-.6,0-1-.4-1-1s.4-1,1-1h3c.6,0,1,.4,1,1s-.4,1-1,1Z"></path><path class="cls-1" d="M80,65c-.3,0-.5-.1-.7-.3-.4-.4-.4-1,0-1.4,0,0,0,0,0,0l2-2c.4-.4,1-.4,1.4,0s.4,1,0,1.4h0l-2,2c-.2.2-.4.3-.7.3Z"></path><path class="cls-1" d="M82,77c-.3,0-.5-.1-.7-.3l-2-2c-.4-.4-.4-1,0-1.4s1-.4,1.4,0l2,2c.4.4.4,1,0,1.4,0,0,0,0,0,0-.2.2-.4.3-.7.3Z"></path></g><path class="cls-2" d="M81,35h2c.6,0,1,.4,1,1h0c0,.6-.4,1-1,1h-2c-.6,0-1-.4-1-1h0c0-.6.4-1,1-1Z"></path><path class="cls-2" d="M81,40h6c.6,0,1,.4,1,1h0c0,.6-.4,1-1,1h-6c-.6,0-1-.4-1-1h0c0-.6.4-1,1-1Z"></path><path class="cls-2" d="M81,45h2c.6,0,1,.4,1,1h0c0,.6-.4,1-1,1h-2c-.6,0-1-.4-1-1h0c0-.6.4-1,1-1Z"></path><path class="cls-2" d="M29,37h-2c-.6,0-1-.4-1-1h0c0-.6.4-1,1-1h2c.6,0,1,.4,1,1h0c0,.6-.4,1-1,1Z"></path><path class="cls-2" d="M29,42h-6c-.6,0-1-.4-1-1h0c0-.6.4-1,1-1h6c.6,0,1,.4,1,1h0c0,.6-.4,1-1,1Z"></path><path class="cls-2" d="M29,47h-2c-.6,0-1-.4-1-1h0c0-.6.4-1,1-1h2c.6,0,1,.4,1,1h0c0,.6-.4,1-1,1Z"></path></g></g></g></svg>