<svg xmlns="http://www.w3.org/2000/svg" viewBox="0 0 64 64"><defs><style>      .cls-1 {        fill: #0092db;      }      .cls-2 {        fill: #006993;      }      .cls-3 {        fill: #c0e4f2;      }    </style></defs><g><g id="Layer_1"><g><path class="cls-2" d="M32,12c-.6,0-1-.4-1-1v-2c0-.6.4-1,1-1s1,.4,1,1v2c0,.6-.4,1-1,1Z"></path><path class="cls-2" d="M55,33h-2c-.6,0-1-.4-1-1s.4-1,1-1h2c.6,0,1,.4,1,1s-.4,1-1,1Z"></path><path class="cls-2" d="M50.2,22.5c-.6,0-1-.4-1-1,0-.4.2-.7.5-.9l1.7-1c.5-.3,1.1-.1,1.4.4.3.5.1,1.1-.4,1.4l-1.7,1c-.2,0-.3.1-.5.1Z"></path><path class="cls-2" d="M42.5,14.8c-.6,0-1-.4-1-1,0-.2,0-.4.1-.5l1-1.7c.3-.5.9-.6,1.4-.4.5.3.6.9.4,1.4h0l-1,1.7c-.2.3-.5.5-.9.5Z"></path><path class="cls-2" d="M51.9,44.5c-.2,0-.3,0-.5-.1l-1.7-1c-.5-.3-.6-.9-.4-1.4.3-.5.9-.6,1.4-.4l1.7,1c.5.3.6.9.4,1.4-.2.3-.5.5-.9.5Z"></path><path class="cls-2" d="M21.5,14.8c-.4,0-.7-.2-.9-.5l-1-1.7c-.3-.5-.1-1.1.4-1.4.5-.3,1.1-.1,1.4.4l1,1.7c.3.5.1,1.1-.4,1.4-.2,0-.3.1-.5.1Z"></path><path class="cls-2" d="M35,22h-5c-.6,0-1-.4-1-1s.4-1,1-1h5c.6,0,1,.4,1,1s-.4,1-1,1Z"></path><path class="cls-2" d="M35,28c-.6,0-1-.4-1-1v-6c0-.6.4-1,1-1s1,.4,1,1v6c0,.6-.4,1-1,1Z"></path><path class="cls-2" d="M45,28c-.6,0-1-.4-1-1v-6c0-.6.4-1,1-1s1,.4,1,1v6c0,.6-.4,1-1,1Z"></path><path class="cls-2" d="M35,28h-5c-.6,0-1-.4-1-1s.4-1,1-1h5c.6,0,1,.4,1,1s-.4,1-1,1Z"></path><path class="cls-2" d="M30,34c-.6,0-1-.4-1-1v-6c0-.6.4-1,1-1s1,.4,1,1v6c0,.6-.4,1-1,1Z"></path><path class="cls-2" d="M45,34c-.6,0-1-.4-1-1v-6c0-.6.4-1,1-1s1,.4,1,1v6c0,.6-.4,1-1,1Z"></path><path class="cls-2" d="M35,34h-5c-.6,0-1-.4-1-1s.4-1,1-1h5c.6,0,1,.4,1,1s-.4,1-1,1Z"></path><path class="cls-2" d="M40,28c-.6,0-1-.4-1-1v-6c0-.6.4-1,1-1s1,.4,1,1v6c0,.6-.4,1-1,1Z"></path><path class="cls-2" d="M45,28h-5c-.6,0-1-.4-1-1s.4-1,1-1h5c.6,0,1,.4,1,1s-.4,1-1,1Z"></path></g><path class="cls-1" d="M51.8,51.8c0,.8-.2,1.6-.8,2.2l-.2.2c-2.7,2.7-6.3,4.3-10.1,4.4-1.3,0-2.7-.1-4-.5h0l-.6-.2c-3-.9-6-2.1-8.8-3.5-7.7-4-13.9-10.3-17.8-18.1-1.3-2.6-2.4-5.4-3.3-8.2,0-.2-.1-.4-.2-.6-.4-1.4-.5-2.9-.5-4.4.2-3.8,1.8-7.3,4.4-10h.1c.5-.6,1.3-.9,2-.9h.2c.7,0,1.3.3,1.8.8l9.5,9.5c1.1,1.1,1.1,2.9,0,4l-1.3,1.3-1.4,1.4c-1,1-2.2,1.8-3.5,2.2,3.8,6.2,9.1,11.4,15.3,15.2.5-1.3,1.2-2.5,2.2-3.4l1.4-1.4,1.3-1.3c1.1-1.1,2.9-1.1,4,0l9.5,9.5c.5.5.8,1.1.8,1.8Z"></path><path class="cls-2" d="M22.2,27.8l-1.4,1.4-10-10c-.4-.4-.4-1,0-1.4s1-.4,1.4,0l10,10Z"></path><path class="cls-2" d="M45.7,52.7c-.4.4-1,.4-1.4,0,0,0,0,0,0,0l-9.5-9.5,1.4-1.4,9.5,9.5c.4.4.4,1,0,1.4,0,0,0,0,0,0Z"></path><path class="cls-3" d="M60,32c0,7.4-2.9,14.5-8.2,19.8,0-.7-.3-1.3-.8-1.8l-2.2-2.2c6.9-7.4,8.2-18.5,3.2-27.2-6.4-11-20.4-14.8-31.4-8.4-1.5.9-3,1.9-4.2,3.2l-2.2-2.2c-.5-.5-1.1-.8-1.8-.8,10.9-10.9,28.7-10.9,39.6,0,5.2,5.3,8.2,12.4,8.2,19.8Z"></path></g></g></svg>