<svg xmlns="http://www.w3.org/2000/svg" viewBox="0 0 110 110"><defs><style>      .cls-1 {        fill: #ffa100;      }      .cls-2 {        fill: #007aaa;      }      .cls-3 {        fill: #edf5f7;      }      .cls-4 {        fill: #0092db;      }      .cls-5 {        fill: #3db8e8;      }      .cls-6 {        fill: #fff;      }      .cls-7 {        fill: #00c99f;      }      .cls-8 {        fill: #ff4d69;      }      .cls-9 {        fill: #a5bced;      }    </style></defs><g><g id="Layer_1"><g id="_5._Secure_Payment"><circle class="cls-3" cx="51" cy="59" r="50"></circle><circle class="cls-7" cx="12.3" cy="4" r="3"></circle><circle class="cls-1" cx="95" cy="9" r="3"></circle><circle class="cls-7" cx="106" cy="72" r="3"></circle><circle class="cls-8" cx="6" cy="102" r="3"></circle><path class="cls-2" d="M72,23v52c0,3.3-2.7,6-6,6H6.1c-3.4-6.8-5.1-14.4-5.1-22,0-1.7,0-3.3.2-5,.9-9.1,4.3-17.7,9.7-25,3.5-4.7,7.9-8.8,12.9-12h42.1c3.3,0,6,2.7,6,6Z"></path><path class="cls-4" d="M85,35v52c0,3.3-2.7,6-6,6H14.3C-2.1,75.3-3.5,48.3,11,29h68c3.3,0,6,2.7,6,6Z"></path><path class="cls-5" d="M85,40v14H1.2c.5-4.8,1.7-9.5,3.5-14h80.2Z"></path><path class="cls-9" d="M96,85h-18c-1.1,0-2-.9-2-2v-9c0-6.1,4.9-11,11-11s11,4.9,11,11v9c0,1.1-.9,2-2,2ZM80,81h14v-7c0-3.9-3.1-7-7-7s-7,3.1-7,7v7Z"></path><rect class="cls-1" x="71" y="81" width="32" height="28" rx="4" ry="4"></rect><path class="cls-6" d="M90,93c0-1.7-1.3-3-3-3-1.7,0-3,1.3-3,3,0,1.3.8,2.4,2,2.8v3.2c0,.6.4,1,1,1s1-.4,1-1v-3.2c1.2-.4,2-1.6,2-2.8Z"></path><rect class="cls-6" x="7" y="68" width="16" height="12" rx="2" ry="2"></rect><g><path class="cls-5" d="M8,60h6c.6,0,1,.4,1,1h0c0,.6-.4,1-1,1h-6c-.6,0-1-.4-1-1h0c0-.6.4-1,1-1Z"></path><path class="cls-5" d="M20,60h6c.6,0,1,.4,1,1h0c0,.6-.4,1-1,1h-6c-.6,0-1-.4-1-1h0c0-.6.4-1,1-1Z"></path><path class="cls-5" d="M32,60h6c.6,0,1,.4,1,1h0c0,.6-.4,1-1,1h-6c-.6,0-1-.4-1-1h0c0-.6.4-1,1-1Z"></path><path class="cls-5" d="M44,60h6c.6,0,1,.4,1,1h0c0,.6-.4,1-1,1h-6c-.6,0-1-.4-1-1h0c0-.6.4-1,1-1Z"></path><path class="cls-5" d="M56,60h6c.6,0,1,.4,1,1h0c0,.6-.4,1-1,1h-6c-.6,0-1-.4-1-1h0c0-.6.4-1,1-1Z"></path><circle class="cls-5" cx="30" cy="78" r="2"></circle><path class="cls-5" d="M35,79c-.6,0-1-.4-1-1,0-2.2-1.8-4-4-4s-1-.4-1-1,.4-1,1-1c3.3,0,6,2.7,6,6s-.4,1-1,1Z"></path><path class="cls-5" d="M39,79c-.6,0-1-.4-1-1,0-4.4-3.6-8-8-8s-1-.4-1-1,.4-1,1-1c5.5,0,10,4.5,10,10s-.4,1-1,1Z"></path><path class="cls-5" d="M23,73v2h-5v5h-2v-5H7v-2h9v-5h2v5h5Z"></path></g></g></g></g></svg>