<svg xmlns="http://www.w3.org/2000/svg" viewBox="0 0 110 110"><defs><style>      .cls-1 {        fill: #ffa100;      }      .cls-2 {        fill: #8ac4db;      }      .cls-3 {        fill: #edf5f7;      }      .cls-4 {        fill: #0092db;      }      .cls-5 {        fill: #fff;      }      .cls-6 {        fill: #00c99f;      }      .cls-7 {        fill: #65c1e5;      }      .cls-8 {        fill: #ff4d69;      }    </style></defs><g><g id="Layer_1"><g id="_20._Review"><circle class="cls-3" cx="51" cy="59" r="50"></circle><circle class="cls-6" cx="19" cy="4" r="3"></circle><circle class="cls-1" cx="106" cy="10" r="3"></circle><circle class="cls-6" cx="93" cy="105" r="3"></circle><circle class="cls-8" cx="4" cy="99" r="3"></circle><path class="cls-4" d="M87,53v40.7c-19.2,19.9-50.8,20.5-70.7,1.3-.4-.4-.9-.9-1.3-1.3v-40.7c0-3.3,2.7-6,6-6h60c3.3,0,6,2.7,6,6Z"></path><path class="cls-7" d="M62,47v21c0,.4-.2.7-.5.9-.1,0-.3.1-.5.1-.2,0-.4,0-.5-.1l-4.5-2.7-4.5,2.7c-.3.2-.7.2-1,0l-4.5-2.7-4.5,2.7c-.5.3-1.1.1-1.4-.4,0-.2-.1-.3-.1-.5v-21h22Z"></path><path class="cls-7" d="M43,97v8c0,1.1-.9,2-2,2h-4c-5.8-1.7-11.2-4.4-16-8v-2c0-1.1.9-2,2-2h18c1.1,0,2,.9,2,2Z"></path><g><path class="cls-5" d="M22,89h10c.6,0,1,.4,1,1h0c0,.6-.4,1-1,1h-10c-.6,0-1-.4-1-1h0c0-.6.4-1,1-1Z"></path><path class="cls-5" d="M22,83h10c.6,0,1,.4,1,1h0c0,.6-.4,1-1,1h-10c-.6,0-1-.4-1-1h0c0-.6.4-1,1-1Z"></path><path class="cls-5" d="M70.9,100.4c-.2.3-.5.5-.9.6h-2v5c-.6.2-1.2.4-1.8.6-.1-.2-.2-.4-.2-.6v-5h-2c-.4,0-.7-.2-.9-.6-.2-.3-.1-.7,0-1l3-4c.3-.4,1-.5,1.4-.2,0,0,.1.1.2.2l3,4c.2.3.2.7,0,1Z"></path><path class="cls-5" d="M80.7,99.2c-.8.6-1.7,1.2-2.6,1.8h-.1c-.7.5-1.3.9-2,1.3v-1.3h-2c-.4,0-.7-.2-.9-.6-.2-.3-.1-.7,0-1l3-4c.3-.4,1-.5,1.4-.2,0,0,.1.1.2.2l2.9,3.8Z"></path></g><path class="cls-6" d="M83.1,14.1c-11.5,1.1-20,11.3-19,22.9.2,1.6.5,3.3,1,4.8.6,1.8.9,3.7.9,5.7v5.6c0,.6.4,1,1,1h5.6c1.9,0,3.8.3,5.7.9,11,3.7,22.9-2.1,26.7-13.1,3.7-11-2.1-22.9-13.1-26.7-2.8-1-5.8-1.3-8.8-1Z"></path><circle class="cls-5" cx="85" cy="35" r="3"></circle><circle class="cls-5" cx="75" cy="35" r="3"></circle><circle class="cls-5" cx="95" cy="35" r="3"></circle><path class="cls-2" d="M50,31h6c.6,0,1,.4,1,1h0c0,.6-.4,1-1,1h-6c-.6,0-1-.4-1-1h0c0-.6.4-1,1-1Z"></path><path class="cls-2" d="M50,36h10c.6,0,1,.4,1,1h0c0,.6-.4,1-1,1h-10c-.6,0-1-.4-1-1h0c0-.6.4-1,1-1Z"></path><path class="cls-2" d="M50,41h6c.6,0,1,.4,1,1h0c0,.6-.4,1-1,1h-6c-.6,0-1-.4-1-1h0c0-.6.4-1,1-1Z"></path></g></g></g></svg>